Coordinates
version=1
nRows=9
nColumns=36
inDegrees=yes

Units are S.I. units (second, meters, Newtons, ...)
If the header above contains a line with 'inDegrees', this indicates whether rotational values are in degrees (yes) or radians (no).

endheader
time	pelvis_tilt	pelvis_list	pelvis_rotation	pelvis_tx	pelvis_ty	pelvis_tz	hip_flexion_r	hip_adduction_r	hip_rotation_r	knee_angle_r	knee_angle_r_beta	ankle_angle_r	subtalar_angle_r	mtp_angle_r	hip_flexion_l	hip_adduction_l	hip_rotation_l	knee_angle_l	knee_angle_l_beta	ankle_angle_l	subtalar_angle_l	mtp_angle_l	lumbar_extension	lumbar_bending	lumbar_rotation	arm_flex_r	arm_add_r	arm_rot_r	elbow_flex_r	pro_sup_r	arm_flex_l	arm_add_l	arm_rot_l	elbow_flex_l	pro_sup_l
      0.39000000	      7.38223755	     -1.22815836	      3.73860787	      0.33875771	      1.16981330	     -0.19491043	    -12.65857433	      7.17716806	      0.90674894	      0.24978656	      0.00435960	      5.07107879	     -1.85072904	     -7.44924830	     19.63852364	     -2.48977654	     -0.50105141	     26.25266310	      0.45819541	      4.35048143	    -11.30778370	     -7.44924830	    -19.70942735	      7.26466936	     -0.58208868	      0.61140993	    -11.42537224	     -4.91685787	     33.02334837	     69.31626722	     -3.85252710	    -10.83179325	     -5.00278447	     33.02242422	     69.38346364
      0.40000000	      7.23418317	     -1.22421061	      3.67062940	      0.34807454	      1.16785170	     -0.19492118	    -13.10295176	      7.25476137	      1.17031522	      0.23826485	      0.00415851	      5.50667527	     -1.67808431	     -7.45340691	     19.60030908	     -2.38075817	     -0.80446032	     23.33845135	      0.40733282	      4.53995629	    -10.37018058	     -7.45340691	    -19.66804330	      7.25353656	     -0.52477886	      0.85416787	    -11.56249819	     -4.86211333	     33.50371178	     69.17510210	     -3.73499844	    -10.87707818	     -5.08676402	     33.27129399	     69.19381747
      0.41000000	      7.24376831	     -1.26458671	      3.54762423	      0.35729586	      1.16624367	     -0.19490256	    -13.70727084	      7.37002214	      1.40305130	      0.22952943	      0.00400604	      5.96658098	     -1.30846172	     -7.45435863	     19.39092947	     -2.36850503	     -1.26372100	     20.61182456	      0.35974420	      5.04060309	     -9.02922595	     -7.45435863	    -19.85045203	      7.27063885	     -0.31398857	      1.17185644	    -11.78463473	     -4.62171556	     33.79944333	     69.59867993	     -3.49318543	    -10.90476264	     -5.12323387	     33.41690359	     69.49708722
      0.42000000	      7.18987663	     -1.30292265	      3.46463902	      0.36656664	      1.16464643	     -0.19497536	    -14.22347582	      7.47724400	      1.58689852	      0.22215033	      0.00387725	      6.46836292	     -1.03450111	     -7.45537650	     19.24284697	     -2.31540075	     -1.65598495	     18.03292374	      0.31473389	      5.59765379	     -7.63456606	     -7.45537650	    -19.93476347	      7.28185752	     -0.23594906	      1.41004099	    -11.95286649	     -4.51035987	     34.22046304	     70.02802353	     -3.35637011	    -10.93376077	     -5.25963514	     33.61132359	     69.79208973
      0.43000000	      7.10810309	     -1.35433070	      3.41192816	      0.37578338	      1.16295079	     -0.19512563	    -14.67296453	      7.59014933	      1.75743410	      0.21695730	      0.00378662	      6.96580628	     -0.90971052	     -7.45957284	     19.14907203	     -2.23564141	     -1.95130092	     15.63513650	      0.27288461	      6.14091644	     -6.37009453	     -7.45957284	    -19.98449941	      7.31214273	     -0.23391325	      1.61355155	    -12.08023663	     -4.50575752	     34.67532807	     70.00794368	     -3.26100075	    -10.92780785	     -5.44217633	     33.78297901	     69.65685287
      0.44000000	      7.07488845	     -1.40607545	      3.33798027	      0.38508585	      1.16120558	     -0.19519978	    -15.14670995	      7.68476002	      1.78237070	      0.21384629	      0.00373232	      7.64732507	     -0.50394156	     -7.46698996	     18.99345787	     -2.17678963	     -2.44949021	     13.38819181	      0.23366803	      7.04425634	     -4.47202839	     -7.46698996	    -20.09374652	      7.31226340	     -0.23457262	      1.81930939	    -12.20936946	     -4.41223094	     35.08746120	     71.21484379	     -3.19716912	    -10.95621335	     -5.72402900	     33.99731058	     70.42437767
      0.45000000	      7.01032569	     -1.46699201	      3.28130078	      0.39440159	      1.15912305	     -0.19530951	    -15.55246299	      7.77763739	      1.83664280	      0.21248941	      0.00370864	      8.29631199	     -0.31617977	     -7.47836720	     18.92238071	     -2.08105505	     -2.80380454	     11.36085229	      0.19828428	      7.84853437	     -2.92863681	     -7.47836720	    -20.16944820	      7.31765887	     -0.22107924	      1.96146330	    -12.25135283	     -4.83035066	     35.46687346	     72.95883599	     -3.09784252	    -10.88417258	     -6.30829474	     34.10062518	     71.65019874
      0.46000000	      6.94010117	     -1.57140456	      3.24373200	      0.40371844	      1.15675813	     -0.19549364	    -15.92864643	      7.90524364	      1.95743886	      0.21131196	      0.00368809	      8.87583281	     -0.33906756	     -7.48185973	     18.89700201	     -1.98979807	     -2.99066485	      9.53362659	      0.16639317	      8.50073563	     -1.61248354	     -7.48185973	    -20.23819278	      7.38676316	     -0.27486209	      2.07588566	    -12.35200159	     -4.80058320	     36.00433952	     72.20656847	     -3.01072461	    -10.86328873	     -6.46709624	     34.18808166	     70.90416015
      0.47000000	      6.88126748	     -1.61257771	      3.19098497	      0.41321042	      1.15431727	     -0.19558505	    -16.32322468	      7.95799315	      1.89644641	      0.21391739	      0.00373356	      9.63288069	     -0.05675600	     -7.48715689	     18.87462184	     -1.85297107	     -3.45126952	      7.93642499	      0.13851675	      9.47856090	      0.25682553	     -7.48715689	    -20.28092316	      7.35415695	     -0.31760124	      2.11674007	    -12.43068097	     -4.91612940	     36.42533787	     73.86941016	     -2.98227228	    -10.86907836	     -6.73484269	     34.32927084	     71.99045702
